# xmcd
#
# Track frame offsets: 
#        150
#        20509
#        36195
#        48235
#        64760
#        82165
#        99656
#        120044
#        140309
#        155406
#        169429
#        184050
#        202312
#        221808
#        243661
#        259749
#        282934
#        294900
#        309036
#        320863
#        335770
#
# Disc length: 4759 seconds
#
# Revision: 0
# Processed by: cddbd v1.5.2PL0 Copyright (c) Steve Scherf et al.
# Submitted via: ExactAudioCopy v1.3
#
DISCID=40129515
DTITLE=Various Artist - Akella Presents - vol. 217 - Americana  CD1
DYEAR=2019
DGENRE=Blues
TTITLE0=Gregor Hilden - Coming Your Way
TTITLE1=Charles Tuberville - Listen To Your Woman
TTITLE2=Kerry Kearney - Songs from the Levee
TTITLE3=8 Ball Aitken - Say You Love Me
TTITLE4=Diamonds and Whiskey - 25 to Life
TTITLE5=Blues Whale - Looking for a Gig
TTITLE6=The Mighty Bosscats - The Devil Inside
TTITLE7=Sammy Eubanks - Born To Love You
TTITLE8=Warren Storm - My House of Memories
TTITLE9=Mike Morgan and The Crawl - Frankie's Blues
TTITLE10=Keith Dunn and The Love Gloves - Money Bound
TTITLE11=John Verity - Help Me
TTITLE12=The Blues Band - Don't Let Them Grind You Down
TTITLE13=Resurrection Band - Lincoln's Train
TTITLE14=Danny Kalb - You Can't Judge a Book by the Cover
TTITLE15=Sheryl Crow - Live Wire
TTITLE16=Fruteland Jackson - When Death Comes Creepin' In
TTITLE17=The Andy Taylor Group - Southbound
TTITLE18=Klaus Tietz - Blue Mood
TTITLE19=Mike Zito and Friends - My Ding A Ling
TTITLE20=Guy Forsyth and Jeska Bailey - House Of The Rising Sun
EXTD=
EXTT0=
EXTT1=
EXTT2=
EXTT3=
EXTT4=
EXTT5=
EXTT6=
EXTT7=
EXTT8=
EXTT9=
EXTT10=
EXTT11=
EXTT12=
EXTT13=
EXTT14=
EXTT15=
EXTT16=
EXTT17=
EXTT18=
EXTT19=
EXTT20=
PLAYORDER=
